<?xml version="1.0" encoding="UTF-8"?>
<svg id="Layer_1" data-name="Layer 1" xmlns="http://www.w3.org/2000/svg" xmlns:xlink="http://www.w3.org/1999/xlink" viewBox="0 0 349.03 336.49">
  <defs>
    <style>
      .cls-1 {
        fill: url(#linear-gradient-15);
      }

      .cls-2 {
        fill: url(#linear-gradient-13);
      }

      .cls-3 {
        fill: url(#linear-gradient-28);
      }

      .cls-4 {
        fill: url(#linear-gradient-2);
      }

      .cls-5 {
        fill: url(#linear-gradient-25);
      }

      .cls-6 {
        fill: url(#linear-gradient-10);
      }

      .cls-7 {
        fill: url(#linear-gradient-12);
      }

      .cls-8 {
        fill: url(#linear-gradient-27);
      }

      .cls-9 {
        fill: url(#linear-gradient-26);
      }

      .cls-10 {
        fill: url(#linear-gradient-4);
      }

      .cls-11 {
        fill: url(#linear-gradient-30);
      }

      .cls-12 {
        fill: url(#linear-gradient-3);
      }

      .cls-13 {
        fill: url(#linear-gradient-5);
      }

      .cls-14 {
        fill: url(#linear-gradient-22);
      }

      .cls-15 {
        fill: url(#linear-gradient-24);
      }

      .cls-16 {
        fill: url(#linear-gradient-8);
      }

      .cls-17 {
        fill: #0973b9;
      }

      .cls-18 {
        fill: url(#linear-gradient-14);
      }

      .cls-19 {
        fill: url(#linear-gradient-29);
      }

      .cls-20 {
        fill: url(#linear-gradient-20);
      }

      .cls-21 {
        fill: url(#linear-gradient-17);
      }

      .cls-22 {
        fill: url(#linear-gradient-7);
      }

      .cls-23 {
        fill: url(#linear-gradient-9);
      }

      .cls-24 {
        fill: url(#linear-gradient-11);
      }

      .cls-25 {
        fill: url(#linear-gradient-19);
      }

      .cls-26 {
        fill: url(#linear-gradient-6);
      }

      .cls-27 {
        fill: url(#linear-gradient-21);
      }

      .cls-28 {
        fill: url(#linear-gradient-16);
      }

      .cls-29 {
        fill: url(#linear-gradient);
      }

      .cls-30 {
        fill: url(#linear-gradient-23);
      }

      .cls-31 {
        fill: url(#linear-gradient-31);
      }

      .cls-32 {
        fill: url(#linear-gradient-18);
      }
    </style>
    <linearGradient id="linear-gradient" x1="160.89" y1="3.89" x2="230.95" y2="3.89" gradientUnits="userSpaceOnUse">
      <stop offset="0" stop-color="#0973b9"/>
      <stop offset="1" stop-color="#003763"/>
    </linearGradient>
    <linearGradient id="linear-gradient-2" x1="96.64" y1="13.07" x2="137.72" y2="13.07" xlink:href="#linear-gradient"/>
    <linearGradient id="linear-gradient-3" x1="212.06" y1="12.64" x2="258.24" y2="12.64" xlink:href="#linear-gradient"/>
    <linearGradient id="linear-gradient-4" x1="78.78" y1="19.82" x2="112.12" y2="19.82" xlink:href="#linear-gradient"/>
    <linearGradient id="linear-gradient-5" x1="223.5" y1="26.98" x2="283.2" y2="26.98" xlink:href="#linear-gradient"/>
    <linearGradient id="linear-gradient-6" x1="87.95" y1="13.54" x2="112.12" y2="13.54" xlink:href="#linear-gradient"/>
    <linearGradient id="linear-gradient-7" x1="59.03" y1="35.05" x2="85.1" y2="35.05" xlink:href="#linear-gradient"/>
    <linearGradient id="linear-gradient-8" x1="188.85" y1="45.73" x2="305.16" y2="45.73" xlink:href="#linear-gradient"/>
    <linearGradient id="linear-gradient-9" x1="40.25" y1="55.05" x2="62.74" y2="55.05" xlink:href="#linear-gradient"/>
    <linearGradient id="linear-gradient-10" x1="128.94" y1="71.74" x2="323.45" y2="71.74" xlink:href="#linear-gradient"/>
    <linearGradient id="linear-gradient-11" x1="24.12" y1="78.68" x2="52.69" y2="78.68" xlink:href="#linear-gradient"/>
    <linearGradient id="linear-gradient-12" x1="130.93" y1="96.79" x2="337.4" y2="96.79" xlink:href="#linear-gradient"/>
    <linearGradient id="linear-gradient-13" x1="11.7" y1="105.19" x2="48.73" y2="105.19" xlink:href="#linear-gradient"/>
    <linearGradient id="linear-gradient-14" x1="207.62" y1="123.4" x2="346.05" y2="123.4" xlink:href="#linear-gradient"/>
    <linearGradient id="linear-gradient-15" x1="3.57" y1="133.8" x2="58.22" y2="133.8" xlink:href="#linear-gradient"/>
    <linearGradient id="linear-gradient-16" x1="272.15" y1="153.61" x2="349.03" y2="153.61" xlink:href="#linear-gradient"/>
    <linearGradient id="linear-gradient-17" x1=".01" y1="163.64" x2="95.3" y2="163.64" xlink:href="#linear-gradient"/>
    <linearGradient id="linear-gradient-18" x1="300.76" y1="184.01" x2="348.72" y2="184.01" xlink:href="#linear-gradient"/>
    <linearGradient id="linear-gradient-19" x1="0" y1="194.06" x2="168.36" y2="194.06" xlink:href="#linear-gradient"/>
    <linearGradient id="linear-gradient-20" x1="309.53" y1="213.6" x2="344.53" y2="213.6" xlink:href="#linear-gradient"/>
    <linearGradient id="linear-gradient-21" x1="3.84" y1="224.19" x2="235.6" y2="224.19" xlink:href="#linear-gradient"/>
    <linearGradient id="linear-gradient-22" x1="305.54" y1="241.34" x2="335.71" y2="241.34" xlink:href="#linear-gradient"/>
    <linearGradient id="linear-gradient-23" x1="13.47" y1="249.71" x2="259.03" y2="249.71" xlink:href="#linear-gradient"/>
    <linearGradient id="linear-gradient-24" x1="296.04" y1="266.87" x2="322.76" y2="266.87" xlink:href="#linear-gradient"/>
    <linearGradient id="linear-gradient-25" x1="28.31" y1="273.91" x2="256.78" y2="273.91" xlink:href="#linear-gradient"/>
    <linearGradient id="linear-gradient-26" x1="282.12" y1="289.47" x2="306.29" y2="289.47" xlink:href="#linear-gradient"/>
    <linearGradient id="linear-gradient-27" x1="47.44" y1="299.77" x2="85.39" y2="299.77" xlink:href="#linear-gradient"/>
    <linearGradient id="linear-gradient-28" x1="263.06" y1="308.27" x2="287.32" y2="308.27" xlink:href="#linear-gradient"/>
    <linearGradient id="linear-gradient-29" x1="70.23" y1="317.8" x2="105.79" y2="317.8" xlink:href="#linear-gradient"/>
    <linearGradient id="linear-gradient-30" x1="238.51" y1="320.08" x2="267.73" y2="320.08" xlink:href="#linear-gradient"/>
    <linearGradient id="linear-gradient-31" x1="96" y1="331.58" x2="159.72" y2="331.58" xlink:href="#linear-gradient"/>
  </defs>
  <g>
    <path class="cls-29" d="M220.37,2.42l10.58,3.25c-8.12-2.1-18.79-2.54-49.33,1.4-10.98,1.24-19.51.8-20.74-1.08,1.56-3.62,40.81-7.61,52.49-5.34l6.99,1.76"/>
    <path class="cls-4" d="M137.72,11.41c-.47,2.64-9.61,3.97-15.07,4.77-7.06,1.03-23.58,3.44-25.75,1.18-1.09-1.13.67-3.7,15.22-9.52-5.38,2.24-6.9,3.14-7.09,4.21,1.15.92,4.39.96,18.89-1.39,2.74-.39,11.85-1.47,13.8.75"/>
    <path class="cls-12" d="M245.61,11.45c3.79,1.87,8.91,4.24,12.63,6.26-3.89-1.62-7.92-3.3-24.02-3.08-14.12-.02-23.29-2.6-22.05-4.9,1.41-2.61,21.63-3.09,29.57.06l3.87,1.67"/>
    <path class="cls-10" d="M103.92,27.41c-3.53,5.18-23.94,6.08-25.1,1.11-1.14-4.9,18.6-15.16,33.29-20.68h0c-16.59,6.53-24.66,11.92-21.05,14.06,1.49.88,4.85.94,6.86.98,5.69.31,7.34,2.56,6,4.53"/>
    <path class="cls-13" d="M269.17,24.2c4.24,2.97,9.94,6.88,14.03,10.06-3.81-2.27-9.57-5.71-36.31-4.59-16.52.28-25.84-3.33-22.83-6.63,3.18-3.49,31.67-5.57,44.15.54l.96.61"/>
    <g>
      <path class="cls-26" d="M106.02,10.42c2.8-1.28,3.03-1.38,4.48-1.98.81-.32,1.02-.4,1.61-.6-7.87,2.99-16,6.83-24.17,11.39,5.09-2.77,9.99-5.16,18.07-8.81"/>
      <path class="cls-22" d="M83.37,44.67c-1.03,1.29-5.12,4.63-11.63,4.54-.11,0-11.33-.35-12.58-4.86-1.1-3.97,5.6-9.3,8.82-11.86,5.06-3.59,11.86-8.33,17.12-11.61-5.72,3.51-20.93,12.83-10.09,16.08,1.15.35,2.75.57,3.95.74,5.62,1.06,6.47,4.39,4.42,6.97"/>
    </g>
    <path class="cls-16" d="M305.16,55.07c-6.75-5.55-19.85-10.74-90.22-2.08-22.98,2.18-27.96-2.75-25.52-5.87,5.67-7.26,86.26-16.97,102.68-5.29,3.98,3.92,9.3,9.12,13.06,13.24"/>
    <path class="cls-23" d="M61.35,65.13c-5.77,7.36-19.98,4.9-21.04-1.86-.56-3.55,2.94-7.54,4.43-9.24,4.01-4.13,9.37-9.65,13.6-13.55-8.94,8.47-9.02,12.65-.32,15.43,5.32,1.95,5.69,6.21,3.33,9.22"/>
    <path class="cls-6" d="M323.45,79.84c-12.86-14.62-64.59-9.78-168.51,5.79-29.47,3.45-25.87-5.44-25.83-5.53,5.24-10.65,167.37-35.11,183.61-15.89,3.29,4.64,7.7,10.82,10.74,15.63"/>
    <path class="cls-24" d="M51.64,89.12c-5.8,8.59-26.88,5.62-27.5-3.88-.16-2.48.99-4.54,2.2-6.72l1.55-2.45c2.73-3.89,6.28-9.14,9.18-12.91-3.04,4.36-8.69,12.49,7.91,15.7,7.55,2.02,9.06,6.69,6.65,10.26"/>
    <path class="cls-7" d="M337.4,108.27c-11.37-18.7-75-11.07-178.43,3.72-31.83,3.53-27.92-6.24-27.87-6.34,6.74-13.84,130.69-23.52,131.94-23.61,57.42-4.41,63.46,4.23,66.36,8.38,2.48,5.32,5.82,12.4,8.01,17.85"/>
    <path class="cls-2" d="M48.04,115.72c-5.88,10.22-32.25,6.08-35.86-3.12-.96-2.45-.31-4.83.44-7.06l2.51-5.91,5.34-10.93c-4.1,9.61,0,13.54,16.85,16.18,11.25,2.07,12.57,7.61,10.72,10.84"/>
    <path class="cls-18" d="M344.84,132.86l1.21,5.9c-4.41-11.3-24.57-16.98-108.66-7.96-26.22,2.11-33.28-4.05-28.29-9.3,10.07-10.62,122.52-23.33,132.34-1.49l3.39,12.84"/>
    <path class="cls-1" d="M57.77,143.98c-5.69,11.69-50.03,7.94-53.92-4.56-.44-1.41-.29-3.46-.11-4.92l2.35-9.64,2.49-8.3c-2.24,11.07,6.01,15.31,32.7,16.82,15.27,1.26,18.22,7.03,16.48,10.6"/>
    <path class="cls-28" d="M348.72,160.31l.31,9.1c-1.66-8.73-11.18-13.86-53.44-12.44-20.79.03-26.25-6.8-22.19-11.74,8.73-10.63,71.4-10.67,74.46,5.41l.86,9.67"/>
    <path class="cls-21" d="M95.05,171.42c-4.51,10.62-35.58,9.98-52.28,9.64-24-.49-38.05-4.39-41.74-11.58-.67-1.3-.95-3.31-1.02-4.77l1-13.43.67-5.21c0,14.01,18.71,18.34,69.05,15.98,23.4-.44,25.49,6.61,24.32,9.37"/>
    <path class="cls-32" d="M348.22,187.53l-1.6,12.04c.04-6.08-2.14-11.64-28.83-12.86-16.2-1.35-20.86-8.88-13.92-14.22,9.56-7.35,45.05-4.81,44.84,8.69l-.5,6.35"/>
    <path class="cls-25" d="M168.12,194.62c-5.9,13.62-157.87,29.03-166.25,1.95-.09-.29-.14-.7-.19-1-.53-5.13-1.33-11.97-1.61-17.12l-.07-1.84c3.49,17.89,40.81,20.63,137.68,10.14,28.74-2.25,31.72,4.91,30.45,7.86"/>
    <path class="cls-20" d="M343.55,214.06c-1.3,4.36-2.92,10.22-4.41,14.52,1.4-6.66-.89-10.41-17.28-12.48-12.81-2.09-15.35-9.35-8.99-14.2,8.81-6.72,32.21-2.62,31.65,7.9-.02.36-.14.83-.2,1.18l-.76,3.09"/>
    <path class="cls-27" d="M235.39,215.17c-8.08,16.07-149.69,24.96-151.11,25.03-47.54,2.36-70.04-1.77-75.24-13.8-1.65-5.63-3.87-13.14-5.2-18.85,9.3,23.39,84.56,17.69,202.99.91,32.93-3.7,28.62,6.61,28.56,6.71"/>
    <path class="cls-14" d="M334.92,239.43c-2.34,4.93-5.43,11.53-8.02,16.33,3.21-7.36.42-10.24-11.95-12.31-10.64-2.12-11.82-8.95-5.73-13.41,6.81-4.99,14.1-2.88,19.41-1.35,3.09.89,8.1,3.24,6.9,8.95-.11.53-.41,1.2-.58,1.71l-.03.08"/>
    <path class="cls-30" d="M258.71,239.68c-8.16,14.61-221.45,43.36-236.7,16.1-2.65-5.25-6.2-12.25-8.55-17.63,14.73,23.68,97.09,12.16,221.77-5.27,28.16-2.92,23.53,6.7,23.48,6.8"/>
    <path class="cls-15" d="M310.24,280.47c4.38-6.19,4.6-10.16-7.21-12.13-8.66-1.92-8.77-8.23-3.1-12.18,6.43-4.47,12.18-2.8,17.26-1.33,1.65.48,6.91,2.46,5.24,7.85-.3.96-.96,2.14-1.48,2.99-3.15,4.48-7.33,10.49-10.71,14.8"/>
    <path class="cls-5" d="M256.42,264.81c-7.1,11.74-196.9,37.95-216.85,16.78-3.45-4.56-8.07-10.62-11.26-15.36,18.17,20.25,101.61,8.03,207.25-7.44,25.51-2.77,20.91,5.94,20.86,6.02"/>
    <path class="cls-9" d="M289.64,301.96c6.41-6.04,8.27-10.13-2.22-11.86-6.51-1.44-7.14-6.64-1.27-10.5,7.68-5.05,20.3-2.13,20.14,3.21-.07,2.4-2.35,4.99-3.58,6.39-3.87,3.88-9,9.09-13.07,12.76"/>
    <path class="cls-8" d="M85.18,305.54c1.92,4.48-9.61,4.42-18.57,1-1.79-.69-4.03-2-5.6-3.11-4.13-3.81-9.65-8.88-13.57-12.91,3.34,2.68,6.23,5,16.89,6.68,18.2,3.28,20.63,7.83,20.85,8.33"/>
    <path class="cls-3" d="M266.16,319.3c4.53-2.91,13.97-8.95,5.91-10.81-1.12-.26-2.66-.37-3.81-.45-5.43-.65-6.88-3.99-3.09-7.13,6.53-5.42,23.25-4.64,22.09,1.03-.51,2.51-4.32,5.56-6.37,7.2-4.38,3.1-10.2,7.28-14.73,10.15"/>
    <path class="cls-19" d="M105.36,322.02c1.63,2.05-1.62,3.28-6.96,2.63-8.17-1-11.58-2.95-12.7-3.59l-1.81-1.08c-4.12-2.72-9.68-6.28-13.67-9.19,4.09,2.36,5.78,3.34,14.34,4.7,17.32,2.72,20.49,6.16,20.79,6.54"/>
    <path class="cls-11" d="M253.39,326.21c2.6-1.72,2.96-2.07,3.2-3.15-.86-1.2-2.89-1.36-9.89-.79-6.67.4-9.06-1.31-7.92-3.12,1.16-1.84,6.64-4.04,11.29-4.54,11.54-1.23,17.48-.75,17.65,1.44.15,1.95-4.57,4.9-6.59,6.17-3.06,1.64-3.91,2.08-7.74,3.99"/>
    <path class="cls-31" d="M159.5,332.06c.12.16.15.45.22.64-2.76,4.63-36.71,4.92-46.71,1.43l-5.21-2.06-11.8-5.4c7.74,3.06,16.57,4.43,40.98,2.92,19.14-.93,22.5,2.43,22.52,2.47"/>
  </g>
  <g>
    <path class="cls-17" d="M282.25,9.8v-.95h6.34v.95h-6.34ZM284.67,17.65v-8.09h1.51v8.09h-1.51Z"/>
    <path class="cls-17" d="M294.05,14.82l2.82-5.98h1.38v8.81h-1.4v-6.88l.12.39-2.37,5.16h-1.09l-2.36-5.03.14-.51v6.88h-1.44v-8.81h1.42l2.78,5.98Z"/>
  </g>
</svg>